<svg xmlns="http://www.w3.org/2000/svg" fill="none" viewBox="0 0 48 49">
  <g fill="#2B7FFF" clip-path="url(#a)">
    <path d="M13.108 18.573H-.184c-.409 0-.739.317-.739.708v4.251c0 .392.33.709.739.709h.738v16.295c0 .392.33.709.739.709H11.63c.408 0 .739-.317.739-.709V24.241h.738c.408 0 .738-.317.738-.709v-4.25c0-.392-.33-.71-.738-.71ZM4.985 32.034v-1.417h4.43V29.2h-4.43v-1.417h5.907v9.21H4.986v-3.542h1.477v-1.417H4.985Zm5.907-5.668H4.247c-.408 0-.738.317-.738.709v10.627c0 .392.33.709.738.709h6.646v1.417H2.031V24.24h8.861v2.125Zm1.478-3.542H.553V19.99H12.37v2.834Zm10.523-4.118v-5.18c0-.404-.33-.73-.739-.73h-.738V9.15h1.477V7.69H14.77v1.46h5.169v3.646H19.2a.733.733 0 0 0-.738.73v5.18c-1.683.339-2.954 1.811-2.954 3.573v18.236c0 .404.33.73.739.73h8.861a.733.733 0 0 0 .738-.73V22.28c0-1.76-1.27-3.234-2.953-3.573Zm-2.954-4.45h1.477v4.376h-1.477v-4.377ZM19.2 20.09h2.954c1.222 0 2.215.982 2.215 2.188v.73h-7.384v-.73c0-1.206.994-2.188 2.215-2.188Zm5.17 16.777h-7.385V35.41h2.954v-1.46h-2.954v-9.483h7.384v12.401Zm-7.385 2.918v-1.459h7.384v1.459h-7.384ZM41.77 17.666H29.308a.703.703 0 0 0-.692.715v22.15c0 .395.31.714.692.714H41.77c.382 0 .692-.32.692-.714V18.38a.703.703 0 0 0-.692-.715Zm-.693 22.15H30V19.095h11.077v20.72Z"/>
    <path d="M10.154 32.176H8.308v.907h1.846v-.907Zm12.923 1.814h-1.846v1.813h1.846V33.99Zm-2.307-1.814c1.781 0 3.23-1.424 3.23-3.174s-1.449-3.174-3.23-3.174c-1.782 0-3.231 1.424-3.231 3.174s1.449 3.174 3.23 3.174Zm0-4.761c.89 0 1.615.712 1.615 1.587s-.725 1.587-1.616 1.587c-.89 0-1.615-.712-1.615-1.587s.724-1.587 1.615-1.587Zm13.038-2.495h3.461c1.337 0 2.424-1.016 2.424-2.266s-1.087-2.267-2.424-2.267h-3.461c-1.336 0-2.423 1.017-2.423 2.267s1.087 2.267 2.423 2.267Zm4.5-2.266c0 .535-.466.971-1.039.971h-1.038v-1.943h1.038c.573 0 1.039.436 1.039.972Zm-4.5-.972h1.038v1.943h-1.038c-.573 0-1.039-.436-1.039-.971 0-.536.466-.972 1.039-.972Zm0 10.494h3.461c1.337 0 2.424-1.22 2.424-2.72 0-1.501-1.087-2.721-2.424-2.721h-3.461c-1.336 0-2.423 1.22-2.423 2.72 0 1.5 1.087 2.72 2.423 2.72Zm4.5-2.72c0 .642-.466 1.165-1.039 1.165h-1.038V28.29h1.038c.573 0 1.039.523 1.039 1.166Zm-4.5-1.167h1.038v2.332h-1.038c-.573 0-1.039-.523-1.039-1.166 0-.643.466-1.166 1.039-1.166Zm0 10.235h3.461c1.337 0 2.424-1.22 2.424-2.72 0-1.5-1.087-2.721-2.424-2.721h-3.461c-1.336 0-2.423 1.22-2.423 2.72 0 1.5 1.087 2.721 2.423 2.721Zm4.5-2.72c0 .642-.466 1.166-1.039 1.166h-1.038v-2.332h1.038c.573 0 1.039.523 1.039 1.166Zm-4.5-1.166h1.038v2.332h-1.038c-.573 0-1.039-.523-1.039-1.166 0-.643.466-1.166 1.039-1.166Z"/>
  </g>
  <defs>
    <clipPath id="a">
      <path fill="#fff" d="M0 .5h48v48H0z"/>
    </clipPath>
  </defs>
</svg>
