<svg xmlns="http://www.w3.org/2000/svg" fill="none" viewBox="0 0 32 32">
  <path fill="#011C44" d="M16 10.25a5.75 5.75 0 1 0 0 11.5 5.75 5.75 0 0 0 0-11.5Zm0 10A4.25 4.25 0 1 1 20.25 16 4.263 4.263 0 0 1 16 20.25Zm5.5-16.5h-11a6.75 6.75 0 0 0-6.75 6.75v11a6.75 6.75 0 0 0 6.75 6.75h11a6.75 6.75 0 0 0 6.75-6.75v-11a6.75 6.75 0 0 0-6.75-6.75Zm5.25 17.75a5.25 5.25 0 0 1-5.25 5.25h-11a5.25 5.25 0 0 1-5.25-5.25v-11a5.25 5.25 0 0 1 5.25-5.25h11a5.25 5.25 0 0 1 5.25 5.25v11Zm-3-12a1.25 1.25 0 1 1-2.5 0 1.25 1.25 0 0 1 2.5 0Z"/>
</svg>
