<svg xmlns="http://www.w3.org/2000/svg" fill="none" viewBox="0 0 32 32">
  <path fill="#011C44" d="m27.655 22.957-.173-.216c-1.372-1.734-2.52-2.637-3.503-2.756-.85-.116-1.673.472-2.548 1.078l-.935.584a2.014 2.014 0 0 1-.326.132c-.547.154-1.927.245-2.708-.47-.91-.832-2.32-2.354-3.418-3.685-1.048-1.377-2.2-3.095-2.801-4.176-.508-.916-.083-2.197.201-2.672.056-.093.13-.185.21-.276l.825-.761c.012-.012.017-.027.028-.038.008-.008.021-.005.03-.012.745-.628 1.514-1.274 1.62-2.105.123-.976-.483-2.296-1.858-4.03l-.168-.215C11.28 2.248 9.994.599 8.146.87c-.727.108-1.376.356-2.046.776-.006.004-.01.012-.016.016-.005.004-.012.004-.017.008l-.932.69c-.01.006-.015.018-.024.026-.007.006-.017.008-.025.014a13.74 13.74 0 0 0-.323.28c-.945.843-2.992 3.29-1.596 7.815.901 2.923 2.76 6.333 5.388 9.883l-.025.021 1.449 1.805.012-.009c2.85 3.37 5.75 5.976 8.407 7.553 1.773 1.054 3.322 1.402 4.597 1.402 1.677 0 2.879-.603 3.481-.995l.379-.253c.043-.03.073-.071.104-.108l.825-.622c.01-.008.015-.018.024-.026.004-.004.01-.003.016-.007.587-.536.994-1.097 1.276-1.763.732-1.705-.578-3.338-1.445-4.42Zm.465 4.002c-.22.517-.541.957-1.005 1.384l-1.228.924c-1.112.722-3.49 1.616-6.943-.435-2.657-1.577-5.582-4.244-8.461-7.712l-.779-.984c-2.71-3.595-4.617-7.037-5.517-9.955-1.17-3.793.304-5.828 1.29-6.706.1-.091.2-.175.3-.259l.003-.004.895-.663a4.067 4.067 0 0 1 1.628-.624c1.239-.186 2.247 1.12 2.987 2.07l.173.22c1.536 1.937 1.684 2.858 1.636 3.234-.053.418-.688.952-1.248 1.423l-.079.067-.006.009-.012.007-.852.788c-.006.005-.008.012-.014.018-.005.007-.016.01-.021.016a2.996 2.996 0 0 0-.337.45c-.48.801-.931 2.457-.218 3.738.623 1.12 1.808 2.89 2.898 4.319 1.138 1.381 2.59 2.95 3.532 3.81.705.643 1.686.86 2.536.86.454 0 .872-.063 1.188-.153.166-.048.338-.117.516-.204.01-.005.016-.014.026-.021.006-.003.014-.001.019-.005l.99-.619c.031-.021.053-.05.08-.076l.011.013c.61-.422 1.304-.918 1.739-.846.385.046 1.26.417 2.799 2.36l.177.222c.75.935 1.776 2.215 1.297 3.334Z"/>
</svg>
