<svg xmlns="http://www.w3.org/2000/svg" fill="none" viewBox="0 0 32 32">
  <path fill="#011C44" d="M23.987 2.128a37.311 37.311 0 0 0-4.05-.208c-4.484 0-7.27 2.856-7.27 7.453v3.122H8.9a.667.667 0 0 0-.667.666v5.134a.667.667 0 0 0 .667.666h3.767v10.294a.667.667 0 0 0 .666.666h5.304a.667.667 0 0 0 .667-.666V18.96h3.755a.667.667 0 0 0 .661-.58l.663-5.133a.665.665 0 0 0-.662-.753h-4.417V9.883c0-1.294.26-1.834 1.877-1.834h2.72a.667.667 0 0 0 .666-.666V2.789a.667.667 0 0 0-.58-.66Zm-.754 4.587-2.053.001c-2.876 0-3.21 1.808-3.21 3.167v3.28a.667.667 0 0 0 .666.666h4.328l-.492 3.8h-3.835a.667.667 0 0 0-.666.667v10.29H14v-10.29a.667.667 0 0 0-.668-.667H9.568v-3.8h3.765a.667.667 0 0 0 .667-.666v-3.79c0-3.832 2.22-6.12 5.937-6.12 1.346 0 2.56.074 3.296.138v3.324Z"/>
</svg>
